<?xml version="1.0" encoding="UTF-8" standalone="no"?>
<!-- Created with Inkscape (http://www.inkscape.org/) -->

<svg
   xmlns:dc="http://purl.org/dc/elements/1.1/"
   xmlns:cc="http://creativecommons.org/ns#"
   xmlns:rdf="http://www.w3.org/1999/02/22-rdf-syntax-ns#"
   xmlns:svg="http://www.w3.org/2000/svg"
   xmlns="http://www.w3.org/2000/svg"
   xmlns:sodipodi="http://sodipodi.sourceforge.net/DTD/sodipodi-0.dtd"
   xmlns:inkscape="http://www.inkscape.org/namespaces/inkscape"
   id="svg2"
   version="1.1"
   inkscape:version="0.91 r13725"
   xml:space="preserve"
   width="1880.6934"
   height="500.36633"
   viewBox="0 0 1880.6933 500.36634"
   sodipodi:docname="logo_myduc.svg"><metadata
     id="metadata8"><rdf:RDF><cc:Work
         rdf:about=""><dc:format>image/svg+xml</dc:format><dc:type
           rdf:resource="http://purl.org/dc/dcmitype/StillImage" /><dc:title /></cc:Work></rdf:RDF></metadata><defs
     id="defs6" /><sodipodi:namedview
     pagecolor="#000000"
     bordercolor="#666666"
     borderopacity="1"
     objecttolerance="10"
     gridtolerance="10"
     guidetolerance="10"
     inkscape:pageopacity="0"
     inkscape:pageshadow="2"
     inkscape:window-width="1535"
     inkscape:window-height="876"
     id="namedview4"
     showgrid="false"
     inkscape:zoom="0.33351261"
     inkscape:cx="1069.7935"
     inkscape:cy="266.126"
     inkscape:window-x="65"
     inkscape:window-y="24"
     inkscape:window-maximized="1"
     inkscape:current-layer="g10"
     fit-margin-top="0"
     fit-margin-left="0"
     fit-margin-right="0"
     fit-margin-bottom="0" /><g
     id="g10"
     inkscape:groupmode="layer"
     inkscape:label="ink_ext_XXXXXX"
     transform="matrix(1.25,0,0,-1.25,-6.1035156e-5,500.36625)"><g
       id="g12"
       transform="scale(0.1,0.1)"><path
         d="M 336.27,3661.02 C 182.613,3586.58 0,3421.93 0,3061.91 0,3006.3 4.33984,2946.78 13.1797,2884.51 L 16.793,2856.7 C 38.9531,2691.47 107.164,2187.65 359.727,1658.34 614.164,1126.43 849.934,787.41 1230.22,406.691 1233.26,403.789 1517.54,122.852 1658.3,52.0313 1758.66,1.91797 1859.31,-0.390625 1884.94,0.0390625 l -3.18,0 6.22,0 -2.9,0 C 1911,-0.390625 2011.36,1.78125 2112.01,52.0313 c 140.76,70.8207 425.33,351.7577 428.08,354.6597 380.58,380.719 616.35,719.739 870.64,1251.649 252.85,529.31 320.33,1033.13 343.08,1198.8 l 3.76,28.24 c 67.05,478.33 -138.73,685.85 -322.95,775.64 -465.58,226.93 -986.77,341.91 -1549.54,341.91 -562.47,0 -1083.662,-114.98 -1548.81,-341.91"
         style="fill:#ffffff;fill-opacity:1;fill-rule:nonzero;stroke:none"
         id="path14"
         inkscape:connector-curvature="0" /><path
         d="m 3376.98,3543.02 c -491.66,239.67 -1013.43,328.73 -1491.91,328.73 -478.48,0 -999.957,-89.06 -1491.472,-328.73 -174.356,-85.01 -262.41,-246.63 -262.41,-481.08 0,-49.96 4.207,-102.97 12.019,-159.01 l 4.059,-28.39 c 15.496,-116.72 54.164,-405.63 167.703,-750.58 130.187,167.41 649.207,309.91 1570.101,358.42 868.33,45.76 1488.57,42.72 1678.14,40.4 34.32,159.74 51.12,284.57 60.25,351.76 l 3.91,28.39 c 45.18,321.78 -39.11,537.12 -250.39,640.09 M 2567.01,2265.59 C 1565.31,2109.04 1050.7661,1898.141 814.57513,1648.771 633.55513,1457.461 726.684,1256.65 775.051,1172.07 930.148,929.359 1101.18,721.551 1323.33,499.691 c 70.96,-70.961 296.44,-281.382 393.76,-330.179 80.37,-40.121 164.37,-38.242 167.98,-38.242 4.06,0 87.9,-1.879 168.13,38.242 97.46,48.797 322.94,259.218 394.05,330.179 368.85,368.7 597.67,698.159 845.01,1215.299 108.47,227.66 181.89,450.67 231.56,641.98 l 0.72,3.04 c -218.81,-4.49 -531.47,-27.66 -957.53,-94.42"
         style="fill:#e61e25;fill-opacity:1;fill-rule:nonzero;stroke:none"
         id="path16"
         inkscape:connector-curvature="0"
         sodipodi:nodetypes="cscscccccccccccccscccccc" /></g><flowRoot
       xml:space="preserve"
       id="flowRoot4237"
       style="font-style:normal;font-weight:normal;font-size:40px;line-height:125%;font-family:sans-serif;letter-spacing:0px;word-spacing:0px;fill:#000000;fill-opacity:1;stroke:none;stroke-width:1px;stroke-linecap:butt;stroke-linejoin:miter;stroke-opacity:1"
       transform="matrix(0.8,0,0,-0.8,0,400.29)"><flowRegion
         id="flowRegion4239"><rect
           id="rect4241"
           width="362.55078"
           height="89.047562"
           x="689.05853"
           y="250.18124" /></flowRegion><flowPara
         id="flowPara4243" /></flowRoot><flowRoot
       xml:space="preserve"
       id="flowRoot4245"
       style="font-style:normal;font-weight:normal;font-size:40px;line-height:125%;font-family:sans-serif;letter-spacing:0px;word-spacing:0px;fill:#000000;fill-opacity:1;stroke:none;stroke-width:1px;stroke-linecap:butt;stroke-linejoin:miter;stroke-opacity:1"
       transform="matrix(0.8,0,0,-0.8,0,400.29)"><flowRegion
         id="flowRegion4247"><rect
           id="rect4249"
           width="606.37146"
           height="265.02249"
           x="445.23779"
           y="67.845764" /></flowRegion><flowPara
         id="flowPara4251" /></flowRoot><text
       xml:space="preserve"
       style="font-style:normal;font-weight:normal;font-size:32px;line-height:125%;font-family:sans-serif;letter-spacing:0px;word-spacing:0px;fill:#000000;fill-opacity:1;stroke:none;stroke-width:1px;stroke-linecap:butt;stroke-linejoin:miter;stroke-opacity:1"
       x="614.0697"
       y="-76.758652"
       id="text4244"
       sodipodi:linespacing="125%"
       transform="scale(1,-1)"><tspan
         sodipodi:role="line"
         id="tspan4246"
         x="614.0697"
         y="-76.758652" /></text>
<g
       transform="scale(0.98150771,-1.0188407)"
       style="font-style:normal;font-variant:normal;font-weight:normal;font-stretch:normal;font-size:127.66693115px;line-height:125%;font-family:Android;-inkscape-font-specification:Android;letter-spacing:0px;word-spacing:0px;opacity:0.98000004;fill:#e61e25;fill-opacity:1;stroke:none;stroke-width:1px;stroke-linecap:butt;stroke-linejoin:miter;stroke-opacity:1"
       id="text4257"><path
         d="m 523.48518,-198.84649 17.82849,0 0,46.379 -17.82849,0 0,-46.379 z m 8.35321,-25.74533 q -12.15579,0 -21.13237,10.90904 -5.42335,6.54542 -5.42335,19.38692 l 0,41.82837 -18.07784,0 0,-31.29336 q 0,-22.06742 0.87273,-22.06742 0.0623,-2.36882 3.24154,-10.34801 3.24154,-6.91944 8.85191,-12.65448 7.10646,-6.85711 12.96617,-9.1636 8.97658,-4.23894 19.26225,-4.23894 10.348,0 19.32458,4.23894 5.85971,2.30649 12.90384,9.1636 5.61036,5.73504 8.8519,12.65448 3.17921,7.97919 3.30388,10.34801 0.87273,0 0.87273,22.06742 l 0,31.29336 -18.14018,0 0,-41.82837 q 0,-12.8415 -5.36101,-19.38692 -8.97658,-10.90904 -21.19471,-10.90904 l -1.12207,0 z"
         style=""
         id="path4163" /><path
         d="m 623.28731,-152.46749 0,-14.71162 q -10.78436,-2.86751 -19.88562,-9.97397 -7.41815,-6.6701 -9.66229,-11.09606 -3.05453,-4.86231 -4.79998,-10.72202 -1.99479,-6.23374 -1.99479,-16.95577 l 0,-26.30637 18.07783,0 0,27.11676 q 0,11.8441 4.61297,18.26485 0.93506,2.05713 5.98439,6.54542 7.54282,5.92205 16.5194,5.92205 8.97658,0 16.5194,-5.92205 5.04933,-4.48829 5.98439,-6.54542 4.61296,-6.42075 4.61296,-18.26485 l 0,-27.11676 18.07784,0 0,26.30637 q 0,10.72203 -1.9948,16.95577 -1.6831,5.85971 -4.79997,10.72202 -2.24415,4.42596 -9.59996,11.09606 -9.16359,7.10646 -19.94796,9.97397 l 0,14.71162 -17.70381,0 z"
         style=""
         id="path4165" /></g><g
       transform="scale(1,-1)"
       style="font-style:normal;font-variant:normal;font-weight:normal;font-stretch:normal;font-size:417.75982666px;line-height:125%;font-family:Android;-inkscape-font-specification:Android;letter-spacing:0px;word-spacing:0px;opacity:0.37000002;fill:#ffffff;fill-opacity:1;stroke:none;stroke-width:1px;stroke-linecap:butt;stroke-linejoin:miter;stroke-opacity:1"
       id="text4261"><path
         d="m 582.04477,-344.05086 q 59.35943,0 68.13076,2.6518 24.07014,2.85578 54.25982,20.19444 16.52272,10.19922 35.0853,31.2096 33.04545,41.00084 33.04545,93.22082 0,30.59764 -11.83109,57.72755 -23.25421,52.831934 -76.49411,76.290128 -24.6821,12.647026 -75.88215,12.647026 l -125.04237,0 -6.5275,-1.223906 0,-55.891698 137.89338,0 q 22.0303,0 34.06538,-3.8757 32.02553,-10.81117 46.91638,-32.22952 18.1546,-27.12991 18.1546,-52.83193 0,-25.906 -15.70679,-50.99607 -9.79124,-14.48289 -21.62233,-22.0303 -21.62234,-17.74664 -61.80724,-17.74664 l -137.89338,0 0,-57.1156 105.25589,0 z"
         style="letter-spacing:23.23165321px"
         id="path4156" /><path
         d="m 974.28403,-50.109496 q -70.57857,0 -118.10691,-58.339504 -8.97531,-11.62711 -12.85101,-20.19445 -5.71156,-9.99523 -10.81117,-26.92592 -6.11952,-20.39843 -6.11952,-55.48373 l 0,-132.79377 59.15544,0 0,139.11728 q 0,70.1706 63.43911,93.83277 14.27891,4.07969 25.29406,4.28368 11.01515,-0.20399 25.49803,-4.28368 63.43914,-23.66217 63.43914,-93.83277 l 0,-139.11728 58.9514,0 0,132.79377 q 0,35.0853 -6.1195,55.48373 -5.0996,16.93069 -10.8112,26.92592 -3.8757,8.36336 -12.647,20.19445 -47.7323,58.339504 -118.31087,58.339504 z"
         style="letter-spacing:23.23165321px"
         id="path4158" /><path
         d="m 1471.7792,-344.05086 0,57.1156 -137.6894,0 q -40.3889,0 -62.0112,17.74664 -11.8311,7.54741 -21.4184,22.0303 -15.7068,25.09007 -15.7068,50.99607 0,25.70202 18.1546,52.83193 14.6869,21.41835 46.7124,32.22952 11.8311,3.8757 34.2694,3.8757 l 137.6894,0 0,55.891698 -6.5275,1.223906 -125.0424,0 q -51.2001,0 -75.8821,-12.647026 -53.2399,-23.458194 -76.4942,-76.290128 -11.831,-27.12991 -11.831,-57.72755 0,-52.21998 33.0454,-93.22082 18.7666,-21.01038 35.2893,-31.2096 29.7817,-17.33866 54.0558,-20.19444 8.5674,-2.6518 68.1308,-2.6518 l 105.2559,0 z"
         style="letter-spacing:23.23165321px"
         id="path4160" /></g></g></svg>