<?xml version="1.0" encoding="UTF-8" standalone="no"?>
<!-- Created with Inkscape (http://www.inkscape.org/) -->

<svg
   xmlns:dc="http://purl.org/dc/elements/1.1/"
   xmlns:cc="http://creativecommons.org/ns#"
   xmlns:rdf="http://www.w3.org/1999/02/22-rdf-syntax-ns#"
   xmlns:svg="http://www.w3.org/2000/svg"
   xmlns="http://www.w3.org/2000/svg"
   xmlns:sodipodi="http://sodipodi.sourceforge.net/DTD/sodipodi-0.dtd"
   xmlns:inkscape="http://www.inkscape.org/namespaces/inkscape"
   id="svg2"
   version="1.1"
   inkscape:version="0.91 r13725"
   xml:space="preserve"
   width="2662.4199"
   height="500.36633"
   viewBox="0 0 2662.4198 500.36634"
   sodipodi:docname="logo_myduc.svg"><metadata
     id="metadata8"><rdf:RDF><cc:Work
         rdf:about=""><dc:format>image/svg+xml</dc:format><dc:type
           rdf:resource="http://purl.org/dc/dcmitype/StillImage" /><dc:title></dc:title></cc:Work></rdf:RDF></metadata><defs
     id="defs6" /><sodipodi:namedview
     pagecolor="#ffffff"
     bordercolor="#666666"
     borderopacity="1"
     objecttolerance="10"
     gridtolerance="10"
     guidetolerance="10"
     inkscape:pageopacity="0"
     inkscape:pageshadow="2"
     inkscape:window-width="1535"
     inkscape:window-height="876"
     id="namedview4"
     showgrid="false"
     inkscape:zoom="0.33351261"
     inkscape:cx="1516.5533"
     inkscape:cy="266.12598"
     inkscape:window-x="65"
     inkscape:window-y="24"
     inkscape:window-maximized="1"
     inkscape:current-layer="g10"
     fit-margin-top="0"
     fit-margin-left="0"
     fit-margin-right="0"
     fit-margin-bottom="0" /><g
     id="g10"
     inkscape:groupmode="layer"
     inkscape:label="ink_ext_XXXXXX"
     transform="matrix(1.25,0,0,-1.25,0,500.36625)"><g
       id="g12"
       transform="scale(0.1,0.1)"><path
         d="M 336.27,3661.02 C 182.613,3586.58 0,3421.93 0,3061.91 0,3006.3 4.33984,2946.78 13.1797,2884.51 L 16.793,2856.7 C 38.9531,2691.47 107.164,2187.65 359.727,1658.34 614.164,1126.43 849.934,787.41 1230.22,406.691 1233.26,403.789 1517.54,122.852 1658.3,52.0313 1758.66,1.91797 1859.31,-0.390625 1884.94,0.0390625 l -3.18,0 6.22,0 -2.9,0 C 1911,-0.390625 2011.36,1.78125 2112.01,52.0313 c 140.76,70.8207 425.33,351.7577 428.08,354.6597 380.58,380.719 616.35,719.739 870.64,1251.649 252.85,529.31 320.33,1033.13 343.08,1198.8 l 3.76,28.24 c 67.05,478.33 -138.73,685.85 -322.95,775.64 -465.58,226.93 -986.77,341.91 -1549.54,341.91 -562.47,0 -1083.662,-114.98 -1548.81,-341.91"
         style="fill:#ffffff;fill-opacity:1;fill-rule:nonzero;stroke:none"
         id="path14"
         inkscape:connector-curvature="0" /><path
         d="m 3376.98,3543.02 c -491.66,239.67 -1013.43,328.73 -1491.91,328.73 -478.48,0 -999.957,-89.06 -1491.472,-328.73 -174.356,-85.01 -262.41,-246.63 -262.41,-481.08 0,-49.96 4.207,-102.97 12.019,-159.01 l 4.059,-28.39 c 15.496,-116.72 54.164,-405.63 167.703,-750.58 130.187,167.41 649.207,309.91 1570.101,358.42 868.33,45.76 1488.57,42.72 1678.14,40.4 34.32,159.74 51.12,284.57 60.25,351.76 l 3.91,28.39 c 45.18,321.78 -39.11,537.12 -250.39,640.09 M 2567.01,2265.59 C 1565.31,2109.04 1050.7661,1898.141 814.57513,1648.771 633.55513,1457.461 726.684,1256.65 775.051,1172.07 930.148,929.359 1101.18,721.551 1323.33,499.691 c 70.96,-70.961 296.44,-281.382 393.76,-330.179 80.37,-40.121 164.37,-38.242 167.98,-38.242 4.06,0 87.9,-1.879 168.13,38.242 97.46,48.797 322.94,259.218 394.05,330.179 368.85,368.7 597.67,698.159 845.01,1215.299 108.47,227.66 181.89,450.67 231.56,641.98 l 0.72,3.04 c -218.81,-4.49 -531.47,-27.66 -957.53,-94.42"
         style="fill:#e61e25;fill-opacity:1;fill-rule:nonzero;stroke:none"
         id="path16"
         inkscape:connector-curvature="0"
         sodipodi:nodetypes="cscscccccccccccccscccccc" /></g><flowRoot
       xml:space="preserve"
       id="flowRoot4237"
       style="font-style:normal;font-weight:normal;font-size:40px;line-height:125%;font-family:sans-serif;letter-spacing:0px;word-spacing:0px;fill:#000000;fill-opacity:1;stroke:none;stroke-width:1px;stroke-linecap:butt;stroke-linejoin:miter;stroke-opacity:1"
       transform="matrix(0.8,0,0,-0.8,0,400.29)"><flowRegion
         id="flowRegion4239"><rect
           id="rect4241"
           width="362.55078"
           height="89.047562"
           x="689.05853"
           y="250.18124" /></flowRegion><flowPara
         id="flowPara4243" /></flowRoot><flowRoot
       xml:space="preserve"
       id="flowRoot4245"
       style="font-style:normal;font-weight:normal;font-size:40px;line-height:125%;font-family:sans-serif;letter-spacing:0px;word-spacing:0px;fill:#000000;fill-opacity:1;stroke:none;stroke-width:1px;stroke-linecap:butt;stroke-linejoin:miter;stroke-opacity:1"
       transform="matrix(0.8,0,0,-0.8,0,400.29)"><flowRegion
         id="flowRegion4247"><rect
           id="rect4249"
           width="606.37146"
           height="265.02249"
           x="445.23779"
           y="67.845764" /></flowRegion><flowPara
         id="flowPara4251" /></flowRoot><text
       xml:space="preserve"
       style="font-style:normal;font-weight:normal;font-size:32px;line-height:125%;font-family:sans-serif;letter-spacing:0px;word-spacing:0px;fill:#000000;fill-opacity:1;stroke:none;stroke-width:1px;stroke-linecap:butt;stroke-linejoin:miter;stroke-opacity:1"
       x="614.0697"
       y="-76.758652"
       id="text4244"
       sodipodi:linespacing="125%"
       transform="scale(1,-1)"><tspan
         sodipodi:role="line"
         id="tspan4246"
         x="614.0697"
         y="-76.758652" /></text>
<g
       id="g4284"
       transform="matrix(1.359547,0,0,1.359547,-179.86483,-74.296231)"><text
         transform="scale(0.9815077,-1.0188407)"
         sodipodi:linespacing="125%"
         id="text4257"
         y="-168.78014"
         x="494.90167"
         style="font-style:normal;font-variant:normal;font-weight:normal;font-stretch:normal;font-size:91.67966461px;line-height:125%;font-family:Android;-inkscape-font-specification:Android;letter-spacing:0px;word-spacing:0px;opacity:0.98000004;fill:#e61e25;fill-opacity:1;stroke:none;stroke-width:1px;stroke-linecap:butt;stroke-linejoin:miter;stroke-opacity:1"
         xml:space="preserve"><tspan
           y="-168.78014"
           x="494.90167"
           id="tspan4259"
           sodipodi:role="line">my</tspan></text>
<text
         transform="scale(1,-1)"
         sodipodi:linespacing="125%"
         id="text4261"
         y="-98.409813"
         x="484.73984"
         style="font-style:normal;font-variant:normal;font-weight:normal;font-stretch:normal;font-size:300px;line-height:125%;font-family:Android;-inkscape-font-specification:Android;letter-spacing:0px;word-spacing:0px;opacity:0.37000002;fill:#ffffff;fill-opacity:1;stroke:none;stroke-width:1px;stroke-linecap:butt;stroke-linejoin:miter;stroke-opacity:1"
         xml:space="preserve"><tspan
           y="-98.409813"
           x="484.73984"
           id="tspan4263"
           sodipodi:role="line">ducati</tspan></text>
</g></g></svg>