<?xml version="1.0" encoding="UTF-8" standalone="no"?>
<!-- Created with Inkscape (http://www.inkscape.org/) -->

<svg
   xmlns:dc="http://purl.org/dc/elements/1.1/"
   xmlns:cc="http://creativecommons.org/ns#"
   xmlns:rdf="http://www.w3.org/1999/02/22-rdf-syntax-ns#"
   xmlns:svg="http://www.w3.org/2000/svg"
   xmlns="http://www.w3.org/2000/svg"
   xmlns:sodipodi="http://sodipodi.sourceforge.net/DTD/sodipodi-0.dtd"
   xmlns:inkscape="http://www.inkscape.org/namespaces/inkscape"
   id="svg2"
   version="1.1"
   inkscape:version="0.91 r13725"
   xml:space="preserve"
   width="523.12134"
   height="704.58588"
   viewBox="0 0 523.12132 704.58589"
   sodipodi:docname="logo_myduc_footer.svg"><metadata
     id="metadata8"><rdf:RDF><cc:Work
         rdf:about=""><dc:format>image/svg+xml</dc:format><dc:type
           rdf:resource="http://purl.org/dc/dcmitype/StillImage" /><dc:title /></cc:Work></rdf:RDF></metadata><defs
     id="defs6" /><sodipodi:namedview
     pagecolor="#000000"
     bordercolor="#666666"
     borderopacity="1"
     objecttolerance="10"
     gridtolerance="10"
     guidetolerance="10"
     inkscape:pageopacity="0"
     inkscape:pageshadow="2"
     inkscape:window-width="1535"
     inkscape:window-height="876"
     id="namedview4"
     showgrid="false"
     inkscape:zoom="1.3340504"
     inkscape:cx="119.99773"
     inkscape:cy="110.53903"
     inkscape:window-x="65"
     inkscape:window-y="24"
     inkscape:window-maximized="1"
     inkscape:current-layer="g10"
     fit-margin-top="0"
     fit-margin-left="0"
     fit-margin-right="0"
     fit-margin-bottom="0" /><g
     id="g10"
     inkscape:groupmode="layer"
     inkscape:label="ink_ext_XXXXXX"
     transform="matrix(1.25,0,0,-1.25,-949.79582,1010.0921)"><g
       id="g12"
       transform="matrix(0.1,0,0,0.1,779.58072,407.78068)"><path
         d="M 336.27,3661.02 C 182.613,3586.58 0,3421.93 0,3061.91 0,3006.3 4.33984,2946.78 13.1797,2884.51 L 16.793,2856.7 C 38.9531,2691.47 107.164,2187.65 359.727,1658.34 614.164,1126.43 849.934,787.41 1230.22,406.691 1233.26,403.789 1517.54,122.852 1658.3,52.0313 1758.66,1.91797 1859.31,-0.390625 1884.94,0.0390625 l -3.18,0 6.22,0 -2.9,0 C 1911,-0.390625 2011.36,1.78125 2112.01,52.0313 c 140.76,70.8207 425.33,351.7577 428.08,354.6597 380.58,380.719 616.35,719.739 870.64,1251.649 252.85,529.31 320.33,1033.13 343.08,1198.8 l 3.76,28.24 c 67.05,478.33 -138.73,685.85 -322.95,775.64 -465.58,226.93 -986.77,341.91 -1549.54,341.91 -562.47,0 -1083.662,-114.98 -1548.81,-341.91"
         style="fill:#ffffff;fill-opacity:1;fill-rule:nonzero;stroke:none"
         id="path14"
         inkscape:connector-curvature="0" /><path
         d="m 3376.98,3543.02 c -491.66,239.67 -1013.43,328.73 -1491.91,328.73 -478.48,0 -999.957,-89.06 -1491.472,-328.73 -174.356,-85.01 -262.41,-246.63 -262.41,-481.08 0,-49.96 4.207,-102.97 12.019,-159.01 l 4.059,-28.39 c 15.496,-116.72 54.164,-405.63 167.703,-750.58 130.187,167.41 649.207,309.91 1570.101,358.42 868.33,45.76 1488.57,42.72 1678.14,40.4 34.32,159.74 51.12,284.57 60.25,351.76 l 3.91,28.39 c 45.18,321.78 -39.11,537.12 -250.39,640.09 M 2567.01,2265.59 C 1565.31,2109.04 1050.7661,1898.141 814.57513,1648.771 633.55513,1457.461 726.684,1256.65 775.051,1172.07 930.148,929.359 1101.18,721.551 1323.33,499.691 c 70.96,-70.961 296.44,-281.382 393.76,-330.179 80.37,-40.121 164.37,-38.242 167.98,-38.242 4.06,0 87.9,-1.879 168.13,38.242 97.46,48.797 322.94,259.218 394.05,330.179 368.85,368.7 597.67,698.159 845.01,1215.299 108.47,227.66 181.89,450.67 231.56,641.98 l 0.72,3.04 c -218.81,-4.49 -531.47,-27.66 -957.53,-94.42"
         style="fill:#e61e25;fill-opacity:1;fill-rule:nonzero;stroke:none"
         id="path16"
         inkscape:connector-curvature="0"
         sodipodi:nodetypes="cscscccccccccccccscccccc" /></g><flowRoot
       xml:space="preserve"
       id="flowRoot4237"
       style="font-style:normal;font-weight:normal;font-size:40px;line-height:125%;font-family:sans-serif;letter-spacing:0px;word-spacing:0px;fill:#000000;fill-opacity:1;stroke:none;stroke-width:1px;stroke-linecap:butt;stroke-linejoin:miter;stroke-opacity:1"
       transform="matrix(0.8,0,0,-0.8,0,400.29)"><flowRegion
         id="flowRegion4239"><rect
           id="rect4241"
           width="362.55078"
           height="89.047562"
           x="689.05853"
           y="250.18124" /></flowRegion><flowPara
         id="flowPara4243" /></flowRoot><flowRoot
       xml:space="preserve"
       id="flowRoot4245"
       style="font-style:normal;font-weight:normal;font-size:40px;line-height:125%;font-family:sans-serif;letter-spacing:0px;word-spacing:0px;fill:#000000;fill-opacity:1;stroke:none;stroke-width:1px;stroke-linecap:butt;stroke-linejoin:miter;stroke-opacity:1"
       transform="matrix(0.8,0,0,-0.8,0,400.29)"><flowRegion
         id="flowRegion4247"><rect
           id="rect4249"
           width="606.37146"
           height="265.02249"
           x="445.23779"
           y="67.845764" /></flowRegion><flowPara
         id="flowPara4251" /></flowRoot><text
       xml:space="preserve"
       style="font-style:normal;font-weight:normal;font-size:32px;line-height:125%;font-family:sans-serif;letter-spacing:0px;word-spacing:0px;fill:#000000;fill-opacity:1;stroke:none;stroke-width:1px;stroke-linecap:butt;stroke-linejoin:miter;stroke-opacity:1"
       x="614.0697"
       y="-76.758652"
       id="text4244"
       sodipodi:linespacing="125%"
       transform="scale(1,-1)"><tspan
         sodipodi:role="line"
         id="tspan4246"
         x="614.0697"
         y="-76.758652" /></text>
<g
       transform="scale(0.9815077,-1.0188407)"
       style="font-style:normal;font-variant:normal;font-weight:normal;font-stretch:normal;font-size:53.69724274px;line-height:125%;font-family:Android;-inkscape-font-specification:Android;letter-spacing:0px;word-spacing:0px;opacity:0.98000004;fill:#e61e25;fill-opacity:1;stroke:none;stroke-width:1px;stroke-linecap:butt;stroke-linejoin:miter;stroke-opacity:1"
       id="text4257"><path
         d="m 790.01485,-302.83453 7.49874,0 0,19.5072 -7.49874,0 0,-19.5072 z m 3.5134,-10.82859 q -5.11278,0 -8.88836,4.58838 -2.28109,2.75304 -2.28109,8.15422 l 0,17.59319 -7.60361,0 0,-13.16212 q 0,-9.28165 0.36707,-9.28165 0.0262,-0.99633 1.36341,-4.35241 1.3634,-2.91035 3.72314,-5.32253 2.98901,-2.88413 5.45363,-3.85425 3.77559,-1.78291 8.10178,-1.78291 4.35241,0 8.128,1.78291 2.46462,0.97012 5.42741,3.85425 2.35974,2.41218 3.72315,5.32253 1.33719,3.35608 1.38962,4.35241 0.36707,0 0.36707,9.28165 l 0,13.16212 -7.62983,0 0,-17.59319 q 0,-5.40118 -2.25486,-8.15422 -3.77559,-4.58838 -8.91458,-4.58838 l -0.47195,0 z"
         style=""
         id="path4277" /><path
         d="m 831.99204,-283.32733 0,-6.18777 q -4.53595,-1.20609 -8.36397,-4.19509 -3.12011,-2.80547 -4.064,-4.66705 -1.28475,-2.04511 -2.01889,-4.50973 -0.83902,-2.62193 -0.83902,-7.13166 l 0,-11.06457 7.60361,0 0,11.40542 q 0,4.98168 1.94023,7.68227 0.39329,0.86524 2.51706,2.75303 3.17254,2.49084 6.94813,2.49084 3.77559,0 6.94813,-2.49084 2.12377,-1.88779 2.51706,-2.75303 1.94023,-2.70059 1.94023,-7.68227 l 0,-11.40542 7.60362,0 0,11.06457 q 0,4.50973 -0.83902,7.13166 -0.70793,2.46462 -2.01889,4.50973 -0.9439,1.86158 -4.03779,4.66705 -3.85424,2.989 -8.39019,4.19509 l 0,6.18777 -7.4463,0 z"
         style=""
         id="path4279" /></g><g
       transform="scale(1,-1)"
       style="font-style:normal;font-variant:normal;font-weight:normal;font-stretch:normal;font-size:175.71153259px;line-height:125%;font-family:Android;-inkscape-font-specification:Android;letter-spacing:0px;word-spacing:0px;opacity:0.37000002;fill:#ffffff;fill-opacity:1;stroke:none;stroke-width:1px;stroke-linecap:butt;stroke-linejoin:miter;stroke-opacity:1"
       id="text4261"><path
         d="m 804.10774,-368.03798 q 24.96682,0 28.65608,1.11536 10.124,1.20115 22.82191,8.49387 6.94953,4.28983 14.75702,13.12689 13.89906,17.24512 13.89906,39.20906 0,12.8695 -4.97621,24.28045 -9.78082,22.22134 -32.17374,32.08795 -10.38139,5.31939 -31.91635,5.31939 l -52.59335,0 -2.74549,-0.51478 0,-23.50828 57.99853,0 q 9.26604,0 14.32804,-1.63014 13.47008,-4.54722 19.73323,-13.55587 7.6359,-11.41095 7.6359,-22.22133 0,-10.89617 -6.60634,-21.44916 -4.11824,-6.09156 -9.09444,-9.26604 -9.09445,-7.46431 -25.99639,-7.46431 l -57.99853,0 0,-24.02306 44.27107,0 z"
         style="letter-spacing:9.77132988px"
         id="path4270" /><path
         d="m 969.0852,-244.40501 q -29.68564,0 -49.67626,-24.53784 -3.77505,-4.89041 -5.40519,-8.49387 -2.40231,-4.20403 -4.54722,-11.32515 -2.5739,-8.57967 -2.5739,-23.33669 l 0,-55.85362 24.88103,0 0,58.51331 q 0,29.51405 26.68275,39.46646 6.00577,1.71593 10.63879,1.80173 4.63302,-0.0858 10.72458,-1.80173 26.68272,-9.95241 26.68272,-39.46646 l 0,-58.51331 24.7953,0 0,55.85362 q 0,14.75702 -2.5739,23.33669 -2.1449,7.12112 -4.5473,11.32515 -1.6301,3.51767 -5.3193,8.49387 -20.07646,24.53784 -49.7621,24.53784 z"
         style="letter-spacing:9.77132988px"
         id="path4272" /><path
         d="m 1178.3337,-368.03798 0,24.02306 -57.9127,0 q -16.9877,0 -26.0822,7.46431 -4.9762,3.17448 -9.0086,9.26604 -6.6064,10.55299 -6.6064,21.44916 0,10.81038 7.6359,22.22133 6.1774,9.00865 19.6475,13.55587 4.9762,1.63014 14.4138,1.63014 l 57.9127,0 0,23.50828 -2.7455,0.51478 -52.5933,0 q -21.535,0 -31.9164,-5.31939 -22.3929,-9.86661 -32.1737,-32.08795 -4.9762,-11.41095 -4.9762,-24.28045 0,-21.96394 13.899,-39.20906 7.8933,-8.83706 14.8429,-13.12689 12.5263,-7.29272 22.7361,-8.49387 3.6034,-1.11536 28.6561,-1.11536 l 44.271,0 z"
         style="letter-spacing:9.77132988px"
         id="path4274" /></g></g></svg>